<?xml version="1.0" encoding="UTF-8" standalone="no"?>
<svg
   width="2834.65"
   height="2834.65"
   viewBox="0 0 2834.65 2834.65"
   version="1.1"
   id="svg148"
   sodipodi:docname="favicon.svg"
   inkscape:version="1.2.2 (b0a8486541, 2022-12-01)"
   xmlns:inkscape="http://www.inkscape.org/namespaces/inkscape"
   xmlns:sodipodi="http://sodipodi.sourceforge.net/DTD/sodipodi-0.dtd"
   xmlns="http://www.w3.org/2000/svg"
   xmlns:svg="http://www.w3.org/2000/svg">
  <sodipodi:namedview
     id="namedview150"
     pagecolor="#ffffff"
     bordercolor="#666666"
     borderopacity="1.0"
     inkscape:showpageshadow="2"
     inkscape:pageopacity="0.0"
     inkscape:pagecheckerboard="0"
     inkscape:deskcolor="#d1d1d1"
     showgrid="false"
     inkscape:zoom="0.11699261"
     inkscape:cx="3141.2241"
     inkscape:cy="1098.36"
     inkscape:window-width="1280"
     inkscape:window-height="652"
     inkscape:window-x="0"
     inkscape:window-y="0"
     inkscape:window-maximized="1"
     inkscape:current-layer="svg148" />
  <defs
     id="defs110">
    <clipPath
       id="clip-0">
      <path
         clip-rule="nonzero"
         d="M 0 0 L 2834.648438 0 L 2834.648438 2834.648438 L 0 2834.648438 Z M 0 0 "
         id="path2" />
    </clipPath>
    <clipPath
       id="clip-1">
      <path
         clip-rule="nonzero"
         d="M 686 668 L 2149 668 L 2149 1929 L 686 1929 Z M 686 668 "
         id="path5" />
    </clipPath>
    <clipPath
       id="clip-2">
      <path
         clip-rule="evenodd"
         d="M 1612.019531 931.710938 C 1600.460938 951 1592.730469 989.148438 1588.851562 1046.140625 C 1636.101562 853.441406 1884.21875 682.179688 2075.53125 668.089844 C 1866.230469 810.851562 1936.960938 978.640625 1831.46875 1084.519531 C 1848.910156 1076.039062 1871.601562 1068.558594 1899.539062 1062.070312 C 1856.96875 1134.941406 1847.308594 1196.25 1870.558594 1246 C 1907.949219 1219.398438 1962.03125 1198.640625 2032.789062 1183.71875 C 1999.269531 1209.628906 1980.921875 1233.28125 1977.75 1254.691406 C 2022.851562 1280.820312 2061.46875 1333.929688 2093.621094 1414.019531 C 2079.339844 1397.21875 2060.03125 1380.808594 2035.691406 1364.769531 C 2070.269531 1450.53125 2099.238281 1544.199219 2122.601562 1645.769531 C 2102.949219 1624.421875 2074.949219 1603.179688 2038.589844 1582.039062 C 2081.261719 1644.570312 2117.808594 1726.199219 2148.25 1826.921875 C 2027.320312 1737.671875 1761.320312 1699.03125 1621.359375 1743.578125 C 1591.398438 1792.578125 1561.21875 1854.378906 1530.839844 1928.988281 C 1495.308594 1851.679688 1339.328125 1851.679688 1303.808594 1928.988281 C 1273.421875 1854.378906 1243.25 1792.578125 1213.28125 1743.578125 C 1073.328125 1699.03125 807.324219 1737.671875 686.390625 1826.921875 C 716.832031 1726.199219 753.386719 1644.570312 796.054688 1582.039062 C 759.695312 1603.179688 731.695312 1624.421875 712.046875 1645.769531 C 735.40625 1544.199219 764.378906 1450.539062 798.953125 1364.769531 C 774.613281 1380.808594 755.300781 1397.21875 741.019531 1414.019531 C 773.171875 1333.929688 811.796875 1280.820312 856.894531 1254.691406 C 853.722656 1233.28125 835.371094 1209.628906 801.851562 1183.71875 C 872.617188 1198.640625 926.691406 1219.398438 964.082031 1246 C 987.335938 1196.25 977.679688 1134.941406 935.101562 1062.070312 C 963.042969 1068.558594 985.734375 1076.039062 1003.179688 1084.519531 C 897.683594 978.640625 968.417969 810.851562 759.109375 668.089844 C 950.425781 682.179688 1198.539062 853.441406 1245.800781 1046.140625 C 1241.910156 989.148438 1234.191406 951.011719 1222.621094 931.710938 C 1283 927.121094 1551.640625 927.121094 1612.019531 931.710938 "
         id="path8" />
    </clipPath>
    <linearGradient
       id="linear-pattern-0"
       gradientUnits="userSpaceOnUse"
       x1="-0.362026"
       y1="0"
       x2="0.883459"
       y2="0"
       gradientTransform="matrix(11.5887,1025.51,1025.51,-11.5887,1408.33,1031.24)">
      <stop
         offset="0"
         stop-color="rgb(96.469116%, 50.979614%, 12.940979%)"
         stop-opacity="1"
         id="stop11" />
      <stop
         offset="0.25"
         stop-color="rgb(96.469116%, 50.979614%, 12.940979%)"
         stop-opacity="1"
         id="stop13" />
      <stop
         offset="0.28125"
         stop-color="rgb(96.469116%, 50.979614%, 12.940979%)"
         stop-opacity="1"
         id="stop15" />
      <stop
         offset="0.296875"
         stop-color="rgb(96.482849%, 50.917053%, 12.890625%)"
         stop-opacity="1"
         id="stop17" />
      <stop
         offset="0.3125"
         stop-color="rgb(96.530151%, 50.698853%, 12.713623%)"
         stop-opacity="1"
         id="stop19" />
      <stop
         offset="0.328125"
         stop-color="rgb(96.598816%, 50.386047%, 12.461853%)"
         stop-opacity="1"
         id="stop21" />
      <stop
         offset="0.34375"
         stop-color="rgb(96.66748%, 50.071716%, 12.210083%)"
         stop-opacity="1"
         id="stop23" />
      <stop
         offset="0.359375"
         stop-color="rgb(96.736145%, 49.758911%, 11.958313%)"
         stop-opacity="1"
         id="stop25" />
      <stop
         offset="0.375"
         stop-color="rgb(96.80481%, 49.446106%, 11.706543%)"
         stop-opacity="1"
         id="stop27" />
      <stop
         offset="0.390625"
         stop-color="rgb(96.873474%, 49.133301%, 11.454773%)"
         stop-opacity="1"
         id="stop29" />
      <stop
         offset="0.40625"
         stop-color="rgb(96.942139%, 48.820496%, 11.203003%)"
         stop-opacity="1"
         id="stop31" />
      <stop
         offset="0.421875"
         stop-color="rgb(97.010803%, 48.50769%, 10.951233%)"
         stop-opacity="1"
         id="stop33" />
      <stop
         offset="0.4375"
         stop-color="rgb(97.079468%, 48.194885%, 10.699463%)"
         stop-opacity="1"
         id="stop35" />
      <stop
         offset="0.453125"
         stop-color="rgb(97.148132%, 47.88208%, 10.447693%)"
         stop-opacity="1"
         id="stop37" />
      <stop
         offset="0.46875"
         stop-color="rgb(97.216797%, 47.569275%, 10.195923%)"
         stop-opacity="1"
         id="stop39" />
      <stop
         offset="0.484375"
         stop-color="rgb(97.286987%, 47.25647%, 9.944153%)"
         stop-opacity="1"
         id="stop41" />
      <stop
         offset="0.5"
         stop-color="rgb(97.355652%, 46.943665%, 9.692383%)"
         stop-opacity="1"
         id="stop43" />
      <stop
         offset="0.515625"
         stop-color="rgb(97.424316%, 46.630859%, 9.439087%)"
         stop-opacity="1"
         id="stop45" />
      <stop
         offset="0.53125"
         stop-color="rgb(97.492981%, 46.318054%, 9.187317%)"
         stop-opacity="1"
         id="stop47" />
      <stop
         offset="0.546875"
         stop-color="rgb(97.561646%, 46.005249%, 8.935547%)"
         stop-opacity="1"
         id="stop49" />
      <stop
         offset="0.5625"
         stop-color="rgb(97.63031%, 45.692444%, 8.683777%)"
         stop-opacity="1"
         id="stop51" />
      <stop
         offset="0.578125"
         stop-color="rgb(97.698975%, 45.379639%, 8.432007%)"
         stop-opacity="1"
         id="stop53" />
      <stop
         offset="0.59375"
         stop-color="rgb(97.767639%, 45.066833%, 8.180237%)"
         stop-opacity="1"
         id="stop55" />
      <stop
         offset="0.609375"
         stop-color="rgb(97.836304%, 44.752502%, 7.928467%)"
         stop-opacity="1"
         id="stop57" />
      <stop
         offset="0.625"
         stop-color="rgb(97.904968%, 44.439697%, 7.676697%)"
         stop-opacity="1"
         id="stop59" />
      <stop
         offset="0.640625"
         stop-color="rgb(97.973633%, 44.126892%, 7.424927%)"
         stop-opacity="1"
         id="stop61" />
      <stop
         offset="0.65625"
         stop-color="rgb(98.042297%, 43.814087%, 7.173157%)"
         stop-opacity="1"
         id="stop63" />
      <stop
         offset="0.671875"
         stop-color="rgb(98.110962%, 43.501282%, 6.921387%)"
         stop-opacity="1"
         id="stop65" />
      <stop
         offset="0.6875"
         stop-color="rgb(98.179626%, 43.188477%, 6.669617%)"
         stop-opacity="1"
         id="stop67" />
      <stop
         offset="0.703125"
         stop-color="rgb(98.248291%, 42.875671%, 6.417847%)"
         stop-opacity="1"
         id="stop69" />
      <stop
         offset="0.71875"
         stop-color="rgb(98.316956%, 42.562866%, 6.166077%)"
         stop-opacity="1"
         id="stop71" />
      <stop
         offset="0.734375"
         stop-color="rgb(98.38562%, 42.250061%, 5.914307%)"
         stop-opacity="1"
         id="stop73" />
      <stop
         offset="0.75"
         stop-color="rgb(98.454285%, 41.937256%, 5.662537%)"
         stop-opacity="1"
         id="stop75" />
      <stop
         offset="0.765625"
         stop-color="rgb(98.522949%, 41.624451%, 5.410767%)"
         stop-opacity="1"
         id="stop77" />
      <stop
         offset="0.78125"
         stop-color="rgb(98.591614%, 41.311646%, 5.158997%)"
         stop-opacity="1"
         id="stop79" />
      <stop
         offset="0.796875"
         stop-color="rgb(98.660278%, 40.99884%, 4.907227%)"
         stop-opacity="1"
         id="stop81" />
      <stop
         offset="0.8125"
         stop-color="rgb(98.728943%, 40.686035%, 4.655457%)"
         stop-opacity="1"
         id="stop83" />
      <stop
         offset="0.828125"
         stop-color="rgb(98.797607%, 40.37323%, 4.402161%)"
         stop-opacity="1"
         id="stop85" />
      <stop
         offset="0.84375"
         stop-color="rgb(98.866272%, 40.060425%, 4.150391%)"
         stop-opacity="1"
         id="stop87" />
      <stop
         offset="0.859375"
         stop-color="rgb(98.934937%, 39.746094%, 3.898621%)"
         stop-opacity="1"
         id="stop89" />
      <stop
         offset="0.875"
         stop-color="rgb(99.003601%, 39.433289%, 3.646851%)"
         stop-opacity="1"
         id="stop91" />
      <stop
         offset="0.890625"
         stop-color="rgb(99.072266%, 39.120483%, 3.395081%)"
         stop-opacity="1"
         id="stop93" />
      <stop
         offset="0.90625"
         stop-color="rgb(99.14093%, 38.807678%, 3.143311%)"
         stop-opacity="1"
         id="stop95" />
      <stop
         offset="0.921875"
         stop-color="rgb(99.209595%, 38.494873%, 2.891541%)"
         stop-opacity="1"
         id="stop97" />
      <stop
         offset="0.9375"
         stop-color="rgb(99.278259%, 38.182068%, 2.639771%)"
         stop-opacity="1"
         id="stop99" />
      <stop
         offset="0.953125"
         stop-color="rgb(99.346924%, 37.869263%, 2.388%)"
         stop-opacity="1"
         id="stop101" />
      <stop
         offset="0.96875"
         stop-color="rgb(99.415588%, 37.556458%, 2.13623%)"
         stop-opacity="1"
         id="stop103" />
      <stop
         offset="0.984375"
         stop-color="rgb(99.484253%, 37.243652%, 1.88446%)"
         stop-opacity="1"
         id="stop105" />
      <stop
         offset="1"
         stop-color="rgb(99.552917%, 36.930847%, 1.63269%)"
         stop-opacity="1"
         id="stop107" />
    </linearGradient>
  </defs>
  <g
     id="g3139"
     transform="matrix(1.0441847,0,0,1.0441847,-62.624163,-62.624081)">
    <path
       fill-rule="evenodd"
       fill="#000000"
       fill-opacity="1"
       d="M 254.116,697.24495 C 226.14129,544.21367 219.14923,368.6567 233.90811,173.00159 l 5.79121,-76.822312 76.4995,6.197952 c 180.20543,14.64266 385.02835,101.79489 551.44979,230.47985 77.76498,60.11368 147.65969,129.67921 203.50589,205.65576 116.5086,-7.93466 229.6728,-5.93324 346.1621,-5.78474 116.489,-0.1485 229.6534,-2.14992 346.1748,5.78474 55.8462,-75.97655 125.7474,-145.54208 203.4929,-205.65576 166.4345,-128.68496 371.2509,-215.83719 551.4499,-230.47985 l 76.5059,-6.197952 5.7848,76.822312 c 14.7653,195.65511 7.7732,371.21208 -20.195,524.24336 -16.2309,88.79211 -39.6346,170.04338 -70.0304,243.3277 l 90.9873,-6.52717 c -72.4257,81.72892 -104.3387,123.90732 -142.2237,192.28502 23.7394,21.2665 46.1812,46.4587 67.3381,75.531 97.96,134.715 134.5537,312.5897 195.3775,462.7932 l -84.3243,-34.1145 c 38.8017,141.0033 58.0412,182.5555 91.1486,325.2569 l -77.9264,-53.2056 c 47.382,116.967 38.6726,128.7882 89.7283,280.3153 -89.186,-33.1269 -328.259,7.9669 -499.2062,62.1602 -310.3108,98.3538 -344.9225,132.0423 -546.6594,388.3856 l -3.8736,-23.8815 c -31.7129,36.1806 -66.6216,65.156 -103.4607,86.4098 -101.6787,58.6224 -238.4984,58.6224 -340.1577,0 -36.8455,-21.2538 -71.7478,-50.2292 -103.4671,-86.4098 l -16.1986,21.6348 C 925.82542,2374.8624 903.56439,2343.4208 593.25369,2245.067 422.29354,2190.8737 183.22049,2149.7799 94.041009,2182.9068 145.09664,2031.3797 136.38722,2019.5585 183.77572,1902.5915 l -74.67239,47.24 c 33.11383,-142.7013 49.08647,-178.288 87.89469,-319.2913 l -84.33733,34.1145 c 60.83676,-150.2035 97.41758,-328.0782 195.38396,-462.7932 21.15049,-29.0723 43.59871,-54.2645 67.33816,-75.531 C 345.99417,1061.4585 311.97,1017.1626 226.48994,938.5518 l 97.65001,2.02085 C 293.73771,867.28833 270.34689,786.03706 254.116,697.24495"
       id="path116"
       style="stroke-width:1.65278" />
    <path
       fill-rule="nonzero"
       fill="#ff6600"
       fill-opacity="1"
       d="m 247.04002,449.75948 c 3.33785,86.77131 11.99561,168.22272 25.85708,244.05079 7.94758,43.48249 17.72871,85.39613 29.3176,125.66345 11.49203,39.93159 24.70141,77.87461 39.58295,113.75822 l 11.20796,27.02572 -77.47438,-1.60761 c 25.2631,24.74662 45.08363,46.31025 61.47592,67.12515 23.8944,30.3117 40.461,58.8224 55.80739,92.7045 l 5.75246,12.6928 -10.47194,9.3679 c -11.07885,9.9362 -22.10603,21.0602 -33.06221,33.3528 -10.82704,12.1313 -21.33127,25.205 -31.49978,39.189 -66.2858,91.1488 -104.21597,203.8546 -141.18416,313.7133 -11.82131,35.1412 -23.55223,69.9788 -35.97395,103.6156 l 79.26276,-32.0486 -10.23954,37.2071 c -14.65557,53.2314 -25.62465,90.1221 -35.51555,123.3972 -14.10033,47.4144 -26.03785,87.5656 -41.29385,149.6096 l 85.24766,-53.9157 -22.332,55.123 c -26.2961,64.9171 -35.05715,96.7655 -46.51691,138.4339 -7.66997,27.9037 -16.51496,60.062 -32.02275,107.9929 44.80602,-7.0246 105.66861,-4.9068 172.49028,3.4087 98.386,12.2474 210.89173,37.8269 303.55757,67.2026 307.83808,97.5596 337.25896,130.4217 528.22047,373.0133 l 15.3721,-20.5435 15.54,17.7158 c 15.0237,17.1411 30.9059,32.6618 47.479,46.5104 16.6634,13.9196 33.753,25.9023 51.1265,35.9159 47.7954,27.5679 104.1063,41.3519 160.5659,41.3519 56.4723,0 112.7703,-13.784 160.585,-41.3519 17.3543,-10.0136 34.4438,-21.9963 51.1008,-35.9159 16.5794,-13.8486 32.4617,-29.3693 47.5047,-46.5104 l 26.7416,-30.5056 3.3894,20.9891 c 86.0418,-108.6384 141.6233,-173.6782 209.4908,-222.9583 74.7887,-54.2966 162.354,-87.9141 319.498,-137.7108 92.6722,-29.3757 205.1779,-54.9552 303.551,-67.2026 66.8217,-8.3155 127.6972,-10.4333 172.5033,-3.4087 -15.5079,-47.9309 -24.3658,-80.0892 -32.0357,-107.9929 -11.4534,-41.6684 -20.2079,-73.5168 -46.504,-138.4339 l -23.7717,-58.6416 89.2699,60.9207 c -14.7461,-59.0356 -27.071,-99.4966 -40.9711,-145.0837 -11.1435,-36.5745 -23.2875,-76.4092 -38.4273,-131.4095 l -10.2331,-37.2071 79.2691,32.0486 c -12.4281,-33.6368 -24.1655,-68.4744 -35.9802,-103.6156 -36.9748,-109.8587 -74.9049,-222.5645 -141.1843,-313.7133 -10.1814,-13.984 -20.6727,-27.0577 -31.4998,-39.189 -10.9562,-12.2926 -21.9832,-23.4166 -33.075,-33.3528 l -11.3371,-10.1619 7.3728,-13.3257 c 19.3686,-34.9344 37.2201,-63.219 59.5134,-93.2339 15.3916,-20.7244 32.8943,-42.24287 54.4774,-67.38339 l -75.5957,5.42323 11.8794,-28.6268 c 14.8752,-35.88361 28.0845,-73.82663 39.5896,-113.75822 11.5823,-40.26732 21.3699,-82.18096 29.2981,-125.66345 13.8679,-75.82807 22.5322,-157.27948 25.87,-244.05079 3.3185,-86.35813 1.3687,-178.2363 -5.9527,-275.33753 l -4.345,-57.61512 -57.3698,4.64201 c -87.4944,7.10827 -181.0963,31.78388 -273.2198,70.27572 -93.6795,39.15685 -185.6738,92.52379 -268.0679,156.24003 -38.7372,29.96321 -75.531,62.32815 -109.5422,96.70094 -32.9074,33.25588 -63.2193,68.42926 -90.2125,105.15212 l -6.2303,8.49636 -10.4461,-0.71019 c -98.2439,-6.69508 -193.5763,-6.33352 -290.5096,-5.95261 -18.0645,0.0516 -36.1999,0.13557 -54.3934,0.14849 -18.2002,-0.0129 -36.3097,-0.0968 -54.3741,-0.14849 -96.94,-0.38091 -192.2722,-0.74247 -290.5161,5.95261 l -10.4462,0.71019 -6.2302,-8.49636 C 1028.7631,513.09479 998.45115,477.92141 965.54399,444.66553 931.52625,410.29274 894.73879,377.9278 855.98226,347.96459 773.58825,284.24835 681.60033,230.88141 587.92088,191.72456 495.79737,153.23272 402.19539,128.55711 314.70098,121.44884 l -57.37624,-4.64201 -4.34502,57.61512 c -7.32133,97.10123 -9.2711,188.9794 -5.9397,275.33753 z m -11.69864,250.92663 c -14.18426,-77.59705 -23.04217,-160.90139 -26.4575,-249.57084 -3.40243,-88.21104 -1.45265,-181.49021 5.94615,-279.53404 l 7.24386,-96.029508 95.62277,7.753887 c 91.536,7.437551 189.12789,33.100941 284.8927,73.116451 96.64929,40.39645 191.62644,95.51302 276.72561,161.32751 40.11241,31.00912 78.1652,64.47807 113.29984,99.99361 31.76449,32.10023 61.18539,65.87906 87.64939,101.02016 94.7834,-5.9849 187.9851,-5.63627 282.6783,-5.27472 18.0644,0.071 36.1739,0.14849 54.3741,0.16786 18.1935,-0.0194 36.3289,-0.0969 54.3934,-0.16786 94.6865,-0.36155 187.869,-0.71018 282.6588,5.27472 26.4639,-35.1411 55.8785,-68.91993 87.6623,-101.02016 35.1411,-35.51554 73.1874,-68.98449 113.2804,-99.99361 85.1186,-65.81449 180.0893,-120.93106 276.745,-161.32751 95.7649,-40.01551 193.3438,-65.6789 284.8928,-73.116451 l 95.6098,-7.753887 7.2567,96.029508 c 7.3923,98.05676 9.3421,191.323 5.9333,279.53404 -3.4025,88.66945 -12.2604,171.97379 -26.4446,249.57084 -8.2769,45.28378 -18.3098,88.39182 -30.0601,129.24665 -8.8773,30.86064 -18.7939,60.65599 -29.7372,89.38609 l 107.3473,-7.6894 -31.0673,35.05726 c -35.7996,40.39646 -61.5857,70.98579 -83.0202,99.87739 -18.4132,24.7917 -33.6885,48.3956 -49.4998,76.0283 8.5932,8.2445 16.9024,16.8569 24.921,25.8634 11.6211,13.0286 22.9258,27.0902 33.9014,42.1848 69.5656,95.6615 108.4837,211.3049 146.4203,324.0431 16.3599,48.6088 32.5392,96.6881 51.204,142.7982 l 16.9411,41.804 -90.148,-36.4647 c 10.33,36.1999 19.2912,65.5691 27.6714,93.0854 17.7158,58.1446 32.9524,108.0897 53.2507,195.623 l 11.0595,47.666 -68.0161,-46.4265 c 11.3887,32.3327 18.0644,56.6274 25.9862,85.4154 9.0903,33.043 19.8463,72.1933 42.2622,138.6728 l 12.7574,37.8657 -37.5363,-13.9326 c -38.1819,-14.1843 -108.6836,-13.3062 -190.1221,-3.1765 -96.0424,11.9698 -206.0172,36.9747 -296.6753,65.7177 -153.1604,48.5378 -238.0464,80.9672 -308.5739,132.1713 -70.6051,51.2687 -129.0013,122.9518 -228.8078,249.771 l -26.9288,34.2243 -4.6614,-28.8528 c -8.0766,7.8314 -16.2954,15.2367 -24.6239,22.1965 -18.0645,15.0881 -37.0198,28.3427 -56.6596,39.6669 -53.8447,31.0543 -116.7991,46.588 -179.5726,46.588 -62.7544,0 -125.7088,-15.5337 -179.5728,-46.588 -19.6398,-11.3242 -38.5823,-24.5788 -56.6467,-39.6669 -12.2282,-10.2009 -24.1785,-21.3571 -35.8125,-33.4366 l -17.3543,23.1906 -21.6993,-27.5744 C 913.54569,2390.1508 888.92179,2358.8768 587.4883,2263.3316 c -90.65148,-28.743 -200.61993,-53.7479 -296.66879,-65.7177 -81.43851,-10.1297 -151.9402,-11.0078 -190.12216,3.1765 l -37.523424,13.9326 12.757447,-37.8657 c 22.396547,-66.4795 33.171957,-105.6298 42.249357,-138.6728 8.18002,-29.75 15.04295,-54.6904 27.14187,-88.6693 l -65.356102,41.3326 10.504238,-45.2838 c 21.085934,-90.8709 35.276674,-138.5888 52.760054,-197.3725 7.52793,-25.3213 15.66919,-52.6955 24.94029,-85.3703 l -90.173724,36.4647 16.934605,-41.804 c 18.664869,-46.1101 34.850569,-94.1765 51.210569,-142.7982 37.93017,-112.7382 76.84814,-228.3816 146.42014,-324.0431 10.96909,-15.0753 22.2739,-29.1562 33.88859,-42.1848 8.2704,-9.2711 16.83778,-18.142 25.70859,-26.6254 -12.48629,-25.7473 -26.36067,-48.4731 -45.23213,-72.4063 -22.21579,-28.1942 -51.44946,-58.24774 -93.376,-96.80421 l -37.16834,-34.19849 119.34283,2.47918 c -11.16923,-29.22073 -21.27963,-59.5455 -30.32477,-90.94845 -11.75673,-40.86128 -21.7832,-83.98224 -30.06006,-129.25311 v -0.0129"
       id="path118"
       style="stroke-width:1.65278" />
    <path
       fill-rule="evenodd"
       fill="#ffffff"
       fill-opacity="1"
       d="m 1769.9412,2235.4603 c 3.7317,73.4521 3.3185,134.0757 -1.2589,181.8904 134.9474,-171.4573 420.6342,-278.3913 857.0539,-320.802 -50.4423,-167.5126 -111.1047,-303.1704 -181.9422,-406.9859 60.0943,34.9409 106.3724,70.0496 138.8535,105.3328 -38.6081,-167.874 -86.4937,-322.6872 -143.631,-464.4331 40.2286,26.5092 72.148,53.6316 95.7518,81.3998 -53.1409,-132.3714 -116.9863,-220.15 -191.5296,-263.3355 5.2555,-35.3865 35.5673,-74.4787 90.9679,-117.3027 -116.9476,24.6628 -206.3337,58.9709 -268.1131,102.9377 -38.4402,-82.2262 -22.4739,-183.55623 47.8792,-303.99661 -46.1748,10.72375 -83.6788,23.08736 -112.4992,37.10377 174.3496,-175.01465 57.4472,-452.31485 403.3897,-688.26957 -316.2052,23.28751 -726.2836,306.34666 -804.3907,624.83742 6.411,-94.19594 19.1878,-157.24718 38.3111,-189.1279 -65.7952,-5.01002 -210.5819,-12.00207 -321.467,-2.94402 -110.8854,-9.05805 -255.672,-2.066 -321.4543,2.94402 19.1104,31.88072 31.8872,94.93196 38.2983,189.1279 C 1056.0664,485.34605 645.98147,202.2869 329.78266,178.99939 675.71872,414.95411 558.81632,692.25431 733.15953,867.26896 704.33905,853.25255 666.835,840.88894 620.6538,830.16519 c 70.37257,120.44038 86.3323,221.77041 47.89855,303.99661 -61.79875,-43.9668 -151.1719,-78.2749 -268.13241,-102.9377 55.40065,42.824 85.73187,81.9162 90.9743,117.3027 -74.53682,43.1855 -138.37572,130.9641 -191.5167,263.3355 23.60387,-27.7682 55.52333,-54.8906 95.7519,-81.3998 -57.14382,141.7459 -105.02945,296.5591 -143.63752,464.4331 32.47468,-35.2832 78.75272,-70.3919 138.84702,-105.3328 -70.83743,103.8155 -131.48696,239.4733 -181.93569,406.9859 436.41968,42.4107 722.09357,149.3447 857.04755,320.802 -4.5776,-47.8147 -4.9907,-108.4383 -1.2395,-181.8904 5.4553,74.2979 24.0299,139.4797 51.8303,194.4219 43.5986,86.2225 82.9685,86.2548 128.5236,78.9529 124.8822,-20.0013 149.5384,-47.0527 171.6896,-47.7501 20.0788,-0.6133 56.524,37.3555 144.7156,49.7322 40.261,5.6555 115.9276,-1.2719 156.0917,-80.0246 28.0973,-55.0714 46.8719,-120.5566 52.3791,-195.3323"
       id="path120"
       style="stroke-width:1.65278" />
    <path
       fill-rule="evenodd"
       fill="#ffffff"
       fill-opacity="1"
       d="m 1203.2484,2540.8966 c 60.7205,77.6358 135.2636,119.8787 210.0653,121.1505 79.8631,1.3753 159.991,-43.7472 223.9074,-128.885 -28.1813,10.0329 -56.1625,10.2652 -75.7507,7.5214 -88.1916,-12.3765 -124.6368,-50.3584 -144.7156,-49.7321 -22.1512,0.6779 -46.8074,27.7359 -171.6896,47.7501 -14.4492,2.3112 -28.2847,3.8802 -41.8168,2.1951"
       id="path122"
       style="stroke-width:1.65278" />
    <g
       clip-path="url(#clip-1)"
       id="g128"
       transform="matrix(1.6527869,0,0,1.6527869,-925.2121,-925.21082)">
      <g
         clip-path="url(#clip-2)"
         id="g126">
        <path
           fill-rule="nonzero"
           fill="url(#linear-pattern-0)"
           d="m 672.14453,668.25 1475.91797,-16.67578 14.4336,1277.25388 -1475.91798,16.6797 z m 0,0"
           id="path124"
           style="fill:url(#linear-pattern-0)" />
      </g>
    </g>
    <path
       fill="none"
       stroke-width="158.896"
       stroke-linecap="butt"
       stroke-linejoin="miter"
       stroke="#332c2b"
       stroke-opacity="1"
       stroke-miterlimit="22.9256"
       d="m 1417.2001,2379.6416 c 53.5048,3.7733 109.6437,-54.6851 119.0321,-103.9797 -18.6176,-40.5105 -68.8637,-60.6964 -119.0321,-60.5902 -50.1726,-0.1062 -100.4146,20.0797 -119.0241,60.5902 10.4462,48.8739 65.4252,107.7653 119.0241,103.9797 z m 0,0"
       id="path132" />
    <path
       fill-rule="evenodd"
       fill="#000000"
       fill-opacity="1"
       d="m 1417.3166,2427.3837 c 84.589,5.9655 173.3424,-86.455 188.1851,-164.3877 -29.4337,-64.0456 -108.8708,-95.9586 -188.1851,-95.7908 -79.321,-0.1678 -158.7516,31.7452 -188.1725,95.7908 16.5151,77.2677 103.4348,170.3726 188.1725,164.3877"
       id="path130"
       style="stroke-width:1.65278" />
    <path
       fill-rule="evenodd"
       fill="#000000"
       fill-opacity="1"
       d="m 327.49717,178.68305 4.15779,1.85293 c 343.17927,235.63835 227.19365,512.09925 401.1753,686.73298 -28.83339,-14.01641 -66.33744,-26.38002 -112.51863,-37.10377 70.37256,120.44038 86.33228,221.77041 47.89853,303.99661 -45.39999,-32.294 -105.68797,-59.4034 -180.8575,-81.2706 C 354.10317,856.22886 298.82519,558.70784 327.49717,178.68305"
       id="path134"
       style="stroke-width:1.65278" />
    <path
       fill-rule="evenodd"
       fill="#000000"
       fill-opacity="1"
       d="m 2511.3776,178.68305 -4.1643,1.85293 c -343.1664,235.63835 -227.1936,512.09925 -401.1625,686.73298 28.8206,-14.01641 66.3246,-26.38002 112.5058,-37.10377 -70.3596,120.44038 -86.3258,221.77041 -47.8856,303.99661 45.387,-32.294 105.6816,-59.4034 180.8511,-81.2706 133.2495,-196.66234 188.5339,-494.18336 159.8555,-874.20815"
       id="path136"
       style="stroke-width:1.65278" />
    <path
       fill-rule="evenodd"
       fill="#000000"
       fill-opacity="1"
       d="m 778.18506,1593.3913 c 19.05225,20.5242 57.94439,32.0937 109.51004,29.9308 30.13107,76.3059 92.78855,112.2734 188.0046,107.8897 76.0152,-3.4994 89.1665,4.9777 116.0436,99.1866 4.0805,-99.6128 -17.535,-184.2213 -76.6545,-235.5546 -54.7227,-47.5369 -142.10726,-68.0935 -230.97688,-8.6254 -47.36913,8.9225 -82.67162,11.3176 -105.92686,7.1729"
       id="path138"
       style="stroke-width:1.65278" />
    <path
       fill-rule="evenodd"
       fill="#000000"
       fill-opacity="1"
       d="m 2056.4673,1593.3913 c -19.0587,20.5242 -57.9638,32.0937 -109.5294,29.9308 -30.1182,76.3059 -92.7885,112.2734 -188.0045,107.8897 -75.996,-3.4994 -89.1731,4.9777 -116.0309,99.1866 -4.0802,-99.6128 17.5415,-184.2213 76.6416,-235.5546 54.7227,-47.5369 142.1075,-68.0935 230.9964,-8.6254 47.369,8.9225 82.6716,11.3176 105.9268,7.1729"
       id="path140"
       style="stroke-width:1.65278" />
    <path
       fill-rule="evenodd"
       fill="#ffffff"
       fill-opacity="1"
       d="m 910.22722,1606.8265 c 96.02308,-51.9143 221.50578,-3.4023 233.10758,97.676 -93.9635,16.3793 -199.19308,-17.5028 -233.10758,-97.676"
       id="path142"
       style="stroke-width:1.65278" />
    <path
       fill-rule="evenodd"
       fill="#ffffff"
       fill-opacity="1"
       d="m 1924.425,1606.8265 c -96.0294,-51.9143 -221.525,-3.4023 -233.1074,97.676 93.9571,16.3793 199.1931,-17.5028 233.1074,-97.676"
       id="path144"
       style="stroke-width:1.65278" />
    <path
       fill-rule="evenodd"
       fill="#000000"
       fill-opacity="1"
       d="m 1850.6953,1439.979 c -111.2661,-21.0408 -195.0999,29.4854 -251.4884,151.5722 58.2414,-97.4434 142.0687,-147.9696 251.4884,-151.5722 z m -866.7383,0 c 111.2662,-21.0408 195.0935,29.4854 251.469,151.5722 -58.2284,-97.4434 -142.0557,-147.9696 -251.469,-151.5722"
       id="path146"
       style="stroke-width:1.65278" />
    <circle
       style="fill:#000000;fill-opacity:1;stroke:none;stroke-width:1.88976"
       id="path543"
       cx="1047.3086"
       cy="1644.1724"
       r="72.654167" />
    <circle
       style="fill:#000000;fill-opacity:1;stroke:none;stroke-width:1.88976"
       id="circle1518"
       cx="1787.3086"
       cy="1644.1724"
       r="72.654167" />
  </g>
</svg>
