<?xml version="1.0" encoding="UTF-8" standalone="no"?>
<!-- Created with Inkscape (http://www.inkscape.org/) -->

<svg
   width="210mm"
   height="297mm"
   viewBox="0 0 210 297"
   version="1.1"
   id="svg5"
   inkscape:version="1.1.2 (0a00cf5339, 2022-02-04)"
   sodipodi:docname="treeview_icons.svg"
   xmlns:inkscape="http://www.inkscape.org/namespaces/inkscape"
   xmlns:sodipodi="http://sodipodi.sourceforge.net/DTD/sodipodi-0.dtd"
   xmlns="http://www.w3.org/2000/svg"
   xmlns:svg="http://www.w3.org/2000/svg">
  <sodipodi:namedview
     id="namedview7"
     pagecolor="#505050"
     bordercolor="#eeeeee"
     borderopacity="1"
     inkscape:pageshadow="0"
     inkscape:pageopacity="0"
     inkscape:pagecheckerboard="0"
     inkscape:document-units="mm"
     showgrid="false"
     inkscape:lockguides="false"
     inkscape:zoom="0.64"
     inkscape:cx="192.96875"
     inkscape:cy="503.125"
     inkscape:window-width="1366"
     inkscape:window-height="694"
     inkscape:window-x="0"
     inkscape:window-y="0"
     inkscape:window-maximized="1"
     inkscape:current-layer="layer1" />
  <defs
     id="defs2" />
  <g
     inkscape:label="Layer 1"
     inkscape:groupmode="layer"
     id="layer1">
    <g
       id="g1776"
       inkscape:export-filename="/home/bbscar/Downloads/file.png"
       inkscape:export-xdpi="299.89999"
       inkscape:export-ydpi="299.89999">
      <path
         style="fill:#ffffff;stroke-width:0.0109459"
         d="m 85.807652,173.70733 c -0.270583,-0.0284 -0.555841,-0.1338 -0.80277,-0.29691 -0.131735,-0.087 -0.367418,-0.31516 -0.465874,-0.45091 -0.08912,-0.12293 -0.215164,-0.35767 -0.26256,-0.48903 -0.03592,-0.0995 -0.06852,-0.216 -0.09872,-0.35262 -0.01636,-0.0744 -0.01822,-1.52903 -0.02171,-17.46416 -0.0028,-12.83867 -6.15e-4,-17.41003 0.0086,-17.48576 0.07181,-0.58875 0.404624,-1.12825 0.882387,-1.43033 0.178535,-0.11288 0.364774,-0.19003 0.592156,-0.2453 l 0.09627,-0.0234 10.103044,-0.003 10.103045,-0.003 c 4.73159,5.03278 4.85776,5.08529 8.84301,9.41621 l 0.24707,0.008 v 13.47405 c 0,9.45973 -0.003,13.50918 -0.012,13.59194 -0.071,0.70798 -0.49152,1.31939 -1.10119,1.60152 -0.12922,0.0596 -0.24207,0.0974 -0.39621,0.13223 l -0.10635,0.024 -13.785219,9.4e-4 c -7.58187,5.8e-4 -13.802708,-5.9e-4 -13.824083,-0.003 z"
         id="path984"
         sodipodi:nodetypes="cssscccsscccccsccccccc" />
      <path
         style="fill:#000000;stroke-width:0.0101901"
         d="m 86.975526,172.70725 c -0.24832,-0.0267 -0.510107,-0.12636 -0.736719,-0.2804 -0.120895,-0.0822 -0.337187,-0.29762 -0.427542,-0.42583 -0.08179,-0.11608 -0.197461,-0.33777 -0.240957,-0.46182 -0.03298,-0.094 -0.06288,-0.20399 -0.0906,-0.33301 -0.01502,-0.0701 -0.01672,-1.44397 -0.01993,-16.49264 -0.0026,-12.12446 -5.64e-4,-16.44152 0.0079,-16.51302 0.0659,-0.55602 0.371333,-1.0655 0.809785,-1.35077 0.163846,-0.10661 0.334761,-0.17946 0.543434,-0.23166 l 0.08835,-0.0221 9.271769,-0.003 9.271774,-0.003 -0.007,0.73118 c -0.012,1.34432 -0.0295,5.54781 -0.0243,5.81094 0.006,0.28161 0.0207,0.40006 0.0803,0.6297 0.0885,0.34125 0.26839,0.6845 0.50144,0.95661 0.3557,0.41532 0.82671,0.66659 1.3417,0.71573 0.0637,0.006 1.29718,0.0166 3.05193,0.0262 1.61972,0.009 3.04696,0.0187 3.17166,0.022 l 0.22673,0.006 v 12.7245 c 0,8.93349 -0.003,12.75767 -0.0109,12.83582 -0.0652,0.6686 -0.45107,1.246 -1.01059,1.51244 -0.11858,0.0564 -0.22215,0.092 -0.36361,0.12486 l -0.0976,0.0226 -12.650977,10e-4 c -6.958036,5.6e-4 -12.667027,-5.6e-4 -12.686644,-0.003 z m 22.993544,-4.14573 c 0.0921,-0.024 0.15607,-0.0636 0.24219,-0.14994 0.0652,-0.0654 0.0875,-0.0969 0.12965,-0.18345 0.028,-0.0574 0.0613,-0.14571 0.0741,-0.19615 l 0.0232,-0.0917 v -1.0343 c 0,-0.95441 -0.001,-1.03969 -0.018,-1.10422 -0.0441,-0.17154 -0.1165,-0.30592 -0.21856,-0.40531 -0.0717,-0.0698 -0.12443,-0.10334 -0.20569,-0.13071 l -0.0617,-0.0208 -10.203067,0.003 -10.203078,0.003 -0.08089,0.0386 c -0.120632,0.0576 -0.221491,0.16338 -0.290091,0.30428 -0.02826,0.058 -0.06176,0.14673 -0.07455,0.19717 l -0.02321,0.0917 v 1.0292 1.0292 l 0.024,0.0917 c 0.07222,0.27569 0.237817,0.47449 0.440687,0.52904 0.04786,0.0129 1.370843,0.0149 10.219982,0.0154 9.101097,5.7e-4 10.171287,-6.5e-4 10.224977,-0.0149 z m 0.0163,-5.90059 c 0.19814,-0.0578 0.36373,-0.2637 0.43481,-0.5406 0.0166,-0.0645 0.018,-0.14981 0.018,-1.10422 v -1.03429 l -0.0231,-0.0917 c -0.0127,-0.0504 -0.0467,-0.13935 -0.0755,-0.19756 -0.0881,-0.17814 -0.23453,-0.3052 -0.38832,-0.33687 -0.0378,-0.008 -3.00233,-0.0102 -10.233067,-0.008 l -10.179885,0.003 -0.05934,0.0239 c -0.07826,0.0316 -0.172769,0.10421 -0.23402,0.17986 -0.06379,0.0787 -0.131753,0.22003 -0.161834,0.33627 l -0.02373,0.0917 v 1.0292 1.0292 l 0.02321,0.0917 c 0.06578,0.25998 0.235423,0.46974 0.427745,0.52888 0.04222,0.013 1.336066,0.0149 10.234034,0.0156 9.269217,5.7e-4 10.190667,-6.5e-4 10.241027,-0.0155 z m -0.0669,-5.29312 c 0.11128,-0.0157 0.20073,-0.0649 0.29261,-0.16105 0.0891,-0.0933 0.13745,-0.17449 0.1799,-0.30235 0.0531,-0.15985 0.0537,-0.17558 0.0498,-1.24828 -0.004,-1.0964 -5.6e-4,-1.0362 -0.0694,-1.20534 -0.0872,-0.21419 -0.24796,-0.36676 -0.42543,-0.40366 -0.0391,-0.008 -2.85121,-0.0112 -10.200677,-0.0112 -9.078252,0 -10.152977,0.002 -10.20657,0.0156 -0.238505,0.0622 -0.420172,0.29972 -0.469811,0.61446 -0.01331,0.0844 -0.01508,0.24008 -0.01239,1.08696 l 0.0033,0.98844 0.02714,0.0989 c 0.07736,0.28186 0.268134,0.49144 0.479397,0.52664 0.07685,0.0128 20.261191,0.0136 20.352181,6.5e-4 z m 0.0275,-5.90084 c 0.21644,-0.045 0.39662,-0.25076 0.46931,-0.53597 l 0.0229,-0.0897 v -1.02919 c 0,-0.94995 -0.001,-1.03508 -0.0181,-1.10562 -0.0592,-0.25043 -0.19683,-0.44126 -0.38005,-0.52706 l -0.0605,-0.0283 -10.208827,-0.003 c -9.192886,-0.002 -10.214216,-0.001 -10.263107,0.0132 -0.09784,0.0285 -0.221577,0.12374 -0.290144,0.22345 -0.05258,0.0764 -0.102957,0.18757 -0.130481,0.28773 l -0.02741,0.0998 -0.0033,0.98334 c -0.002,0.67769 2.82e-4,1.01026 0.0081,1.06996 0.04144,0.31788 0.23522,0.57884 0.473699,0.63783 0.06979,0.0172 20.32475,0.0204 20.40767,0.003 z m 0.0489,-6.68993 c -1.29392,-0.008 -2.343,-0.0178 -2.41505,-0.0235 -0.34719,-0.0277 -0.65248,-0.17258 -0.91276,-0.43304 -0.23179,-0.23195 -0.39447,-0.52144 -0.47783,-0.85026 -0.0557,-0.21952 -0.0609,-0.28142 -0.0601,-0.70454 0.003,-1.40898 0.0262,-6.13572 0.0307,-6.16487 0.005,-0.03 0.007,-0.033 0.0172,-0.0194 0.0121,0.0165 0.15877,0.17689 0.28754,0.3144 0.0395,0.0422 0.10804,0.11578 0.15218,0.16342 0.0441,0.0477 0.10369,0.11183 0.13233,0.14265 0.0286,0.0308 0.30828,0.33348 0.62143,0.67255 0.31314,0.33908 0.62246,0.67379 0.68738,0.74382 0.0649,0.07 0.14325,0.15485 0.17407,0.18851 0.0308,0.0336 0.0585,0.0635 0.0615,0.0663 0.007,0.007 0.59036,0.63726 0.75938,0.82108 0.0725,0.0789 0.26946,0.2919 0.4376,0.47337 0.16813,0.18147 0.47724,0.51587 0.6869,0.74312 0.20967,0.22723 0.43467,0.47048 0.50001,0.54053 0.0971,0.10407 0.5417,0.58528 0.81916,0.88654 0.0336,0.0365 0.12062,0.13043 0.19347,0.20889 0.14145,0.15234 0.16168,0.17416 0.37286,0.40251 0.0752,0.0813 0.16011,0.17298 0.18876,0.2038 0.0287,0.0308 0.19606,0.21195 0.37198,0.40251 0.17592,0.19055 0.36833,0.39875 0.42757,0.46265 0.0593,0.0639 0.1123,0.12142 0.11791,0.12781 0.006,0.007 0.042,0.0458 0.0809,0.0876 0.14258,0.15314 0.18676,0.20091 0.30595,0.33075 0.0669,0.0729 0.14229,0.15425 0.16758,0.18087 l 0.046,0.0484 -0.7435,-0.002 c -0.40891,-6.6e-4 -1.77294,-0.008 -3.03116,-0.0149 z"
         id="path1084" />
    </g>
    <g
       id="g5449"
       transform="translate(2.728515,2.9765676)"
       inkscape:export-filename="/home/bbscar/Downloads/folder.png"
       inkscape:export-xdpi="299.89999"
       inkscape:export-ydpi="299.89999">
      <path
         style="fill:#ffffff;stroke-width:0.04405"
         d="m 83.189918,128.05587 c -1.520808,-0.24669 -2.143366,-0.64682 -2.628162,-1.95312 V 113.19664 99.761356 l 0.105236,-0.308354 c 0.394939,-1.157217 1.515553,-2.378631 2.671856,-2.335294 l 0.604601,0.02266 h 2.301338 c 2.283714,0 2.833691,8.21e-4 3.247044,0.105722 0.2291,0.0581 0.534074,0.164987 0.677711,0.237502 0.680347,0.34344 1.263934,0.959576 1.521252,1.606122 0.225256,0.565974 0.228678,0.652864 0.24747,1.761346 l 0.01922,1.13371 10.688766,0.0121 c 9.07469,0.01 9.66411,0.023 9.80665,0.0694 0.86144,0.28071 1.28288,0.52143 1.78734,1.0209 0.83377,0.85715 1.14062,1.9705 1.14199,2.4474 v 0.5034 l 1.06822,8.3e-4 c 2.26418,0.14155 3.31342,1.27296 3.24987,2.56142 0.0692,0.40997 0.0311,1.00943 -0.0919,1.44694 -0.0511,0.1817 -0.12914,0.46913 -0.17345,0.63872 -0.0792,0.30279 -0.20622,0.77707 -0.57253,2.13643 -0.10119,0.37553 -0.21953,0.82154 -0.26294,0.99114 -0.0434,0.16958 -0.15208,0.57595 -0.24146,0.90302 -0.26937,0.98573 -0.46667,1.71793 -0.57567,2.13642 -0.0568,0.21806 -0.17624,0.66407 -0.26542,0.99113 -0.0892,0.32707 -0.21739,0.80282 -0.28488,1.0572 -0.0675,0.25439 -0.24572,0.91846 -0.39606,1.47568 -0.15034,0.55724 -0.34167,1.27085 -0.42518,1.58581 -0.16682,0.62915 -0.23082,0.86904 -0.49347,1.8501 -0.0973,0.36342 -0.24575,0.91845 -0.32992,1.23341 -0.18629,0.69715 -0.2702,0.94667 -0.41476,1.23339 -0.61265,1.2152 -1.89549,1.6195 -3.17298,1.77969 -0.46027,0.0577 -28.403451,0.0544 -28.809838,-0.003 z"
         id="path854"
         sodipodi:nodetypes="ccccsscsccssccccccccsssssssssssssccc" />
      <path
         style="fill:#000000;stroke-width:0.0407909"
         d="m 83.27028,127.14615 c -0.80625,-0.11469 -1.535206,-0.70793 -1.823115,-1.48371 l -0.120582,-0.32491 v -12.44125 -12.44125 l 0.09745,-0.28554 C 81.789749,99.097884 82.532,98.392244 83.57061,98.128784 l 0.39745,-0.10083 h 2.13107 c 2.11475,0 2.13402,7.6e-4 2.51679,0.0979 0.21215,0.0538 0.49456,0.15278 0.62757,0.21993 0.63001,0.31803 1.17042,0.88858 1.4087,1.487289 0.20859,0.524107 0.21062,0.538567 0.22916,1.631037 l 0.0178,1.04983 10.38794,0.0112 c 8.40328,0.009 10.41914,0.0213 10.55113,0.0643 0.79771,0.25994 1.18797,0.48285 1.6551,0.94537 0.39593,0.39201 0.66077,0.80572 0.84926,1.32664 0.14835,0.40999 0.20824,0.82119 0.20824,1.4297 v 0.46615 l 0.98919,7.7e-4 c 1.14047,7.7e-4 1.38781,0.0375 1.83589,0.27239 0.60141,0.31527 1.0616,0.94642 1.17353,1.6095 0.0641,0.37964 0.0288,0.93475 -0.0851,1.33989 -0.0473,0.16826 -0.11958,0.43442 -0.16062,0.59146 -0.0733,0.28039 -0.19096,0.71958 -0.53017,1.97837 -0.0937,0.34774 -0.20328,0.76075 -0.24348,0.9178 -0.0402,0.15704 -0.14083,0.53334 -0.2236,0.83621 -0.24944,0.9128 -0.43214,1.59083 -0.53308,1.97836 -0.0526,0.20192 -0.1632,0.61493 -0.24578,0.9178 -0.0826,0.30287 -0.2013,0.74342 -0.2638,0.97898 -0.0625,0.23557 -0.22754,0.8505 -0.36676,1.3665 -0.13921,0.51601 -0.31639,1.17682 -0.39372,1.46848 -0.15448,0.5826 -0.21374,0.80474 -0.45696,1.71322 -0.0901,0.33653 -0.22757,0.85049 -0.30551,1.14215 -0.17251,0.64557 -0.25021,0.87663 -0.38407,1.14214 -0.56733,1.12529 -1.75525,1.98969 -2.93823,2.13803 -0.42621,0.0534 -27.772,0.0504 -28.14832,-0.003 z m -0.49558,-8.19241 c 0.0952,-0.34774 0.20607,-0.76075 0.24627,-0.9178 0.0402,-0.15704 0.14996,-0.57005 0.24393,-0.91779 0.094,-0.34775 0.2221,-0.825 0.28474,-1.06057 0.0626,-0.23557 0.22766,-0.85049 0.3667,-1.3665 0.27132,-1.00691 0.37458,-1.39282 0.79676,-2.97774 0.65399,-2.45512 0.6383,-2.40212 0.82151,-2.77566 0.47408,-0.96663 1.31423,-1.68046 2.44091,-2.0739 l 0.24474,-0.0855 12.5738,-0.011 12.57384,-0.011 v -0.50291 c 0,-0.87644 -0.18126,-1.35648 -0.71119,-1.88357 -0.28652,-0.28499 -0.63767,-0.49963 -0.98543,-0.60234 -0.11787,-0.0348 -2.99565,-0.0527 -11.05058,-0.0685 l -10.89117,-0.0215 -0.0204,-1.57045 -0.0204,-1.57045 -0.13899,-0.28442 c -0.15379,-0.314717 -0.45006,-0.638557 -0.73903,-0.807806 -0.39352,-0.23048 -0.48816,-0.23803 -2.82125,-0.22501 l -2.13385,0.0119 -0.27511,0.13032 c -0.15131,0.0717 -0.34278,0.181809 -0.42549,0.244739 -0.2302,0.17516 -0.49198,0.559337 -0.58388,0.856867 -0.0812,0.26301 -0.082,0.35721 -0.0775,9.89812 0.004,7.86186 0.014,9.59508 0.0562,9.42861 0.0284,-0.11217 0.12962,-0.48847 0.22487,-0.83621 z"
         id="path2979"
         sodipodi:nodetypes="cscccsscsccsscccsssccsssssssssssssssccccsscsssccccsssccccsssccsccccc" />
    </g>
  </g>
</svg>
